<?xml version="1.0" encoding="utf-8"?>
<?xml-stylesheet type="text/xsl" href="rss1.xsl"?>
<rss version="2.0" xmlns:atom="http://www.w3.org/2005/Atom" xmlns:content="http://purl.org/rss/1.0/modules/content/" xmlns:dc="http://purl.org/dc/elements/1.1/" xmlns:media="http://search.yahoo.com/mrss/">
<channel>
 <title>Getty</title>
 <link>http://www.gettyimg.com/</link>
 <atom:link href="http://www.gettyimg.com/" rel="self" type="application/rss+xml" />

 
                <item>
                <title><![CDATA[【UPSCALED】KEYLA FEAT ORLAND MAX - Fight For This Love - 2K UPSCALE]]></title>
                <link><![CDATA[https://sharemania.us/threads/keyla-feat-orland-max-fight-for-this-love-2k-upscale.244847/]]></link>
                <description><![CDATA[<article>
<blockquote class="messageText SelectQuoteContainer ugc baseHtml">
<img src="https://imgur.com/rgBYGe4" class="bbCodeImage LbImage" alt="[​IMG]" data-url="https://imgur.com/rgBYGe4" style=""><br>
<img src="https://imgur.com/1eHJOXe" class="bbCodeImage LbImage" alt="[​IMG]" data-url="https://imgur.com/1eHJOXe" style=""><br>
<img src="https://imgur.com/5l4Ig4N" class="bbCodeImage LbImage" alt="[​IMG]" data-url="https://imgur.com/5l4Ig4N" style=""><br>
<img src="https://imgur.com/8A8Lc1Z" class="bbCodeImage LbImage" alt="[​IMG]" data-url="https://imgur.com/8A8Lc1Z" style=""><br>
<img src="https://imgur.com/v3x0IeQ" class="bbCodeImage LbImage" alt="[​IMG]" data-url="https://imgur.com/v3x0IeQ" style=""><br>
<iframe data-s9e-mediaembed="imgur" allowfullscreen="" loading="lazy" onload="var c=new MessageChannel;c.port1.onmessage=function(e){var d=e.data.split(' ');style.height=d[0]+'px';style.width=d[1]+'px'};contentWindow.postMessage('s9e:init','https://s9e.github.io',[c.port2])" scrolling="no" style="border: 0px; height: 453px; max-width: 100%; width: 540px;" src="https://s9e.github.io/iframe/2/imgur.min.html#rgBYGe4"></iframe><br>
<iframe data-s9e-mediaembed="imgur" allowfullscreen="" loading="lazy" onload="var c=new MessageChannel;c.port1.onmessage=function(e){var d=e.data.split(' ');style.height=d[0]+'px';style.width=d[1]+'px'};contentWindow.postMessage('s9e:init','https://s9e.github.io',[c.port2])" scrolling="no" style="border: 0px; height: 453px; max-width: 100%; width: 540px;" src="https://s9e.github.io/iframe/2/imgur.min.html#1eHJOXe"></iframe><br>
<iframe data-s9e-mediaembed="imgur" allowfullscreen="" loading="lazy" onload="var c=new MessageChannel;c.port1.onmessage=function(e){var d=e.data.split(' ');style.height=d[0]+'px';style.width=d[1]+'px'};contentWindow.postMessage('s9e:init','https://s9e.github.io',[c.port2])" scrolling="no" style="border: 0px; height: 453px; max-width: 100%; width: 540px;" src="https://s9e.github.io/iframe/2/imgur.min.html#5l4Ig4N"></iframe><br>
<iframe data-s9e-mediaembed="imgur" allowfullscreen="" loading="lazy" onload="var c=new MessageChannel;c.port1.onmessage=function(e){var d=e.data.split(' ');style.height=d[0]+'px';style.width=d[1]+'px'};contentWindow.postMessage('s9e:init','https://s9e.github.io',[c.port2])" scrolling="no" style="border: 0px; height: 453px; max-width: 100%; width: 540px;" src="https://s9e.github.io/iframe/2/imgur.min.html#8A8Lc1Z"></iframe><br>
<iframe data-s9e-mediaembed="imgur" allowfullscreen="" loading="lazy" onload="var c=new MessageChannel;c.port1.onmessage=function(e){var d=e.data.split(' ');style.height=d[0]+'px';style.width=d[1]+'px'};contentWindow.postMessage('s9e:init','https://s9e.github.io',[c.port2])" scrolling="no" style="border: 0px; height: 453px; max-width: 100%; width: 540px;" src="https://s9e.github.io/iframe/2/imgur.min.html#v3x0IeQ"></iframe><br>
<br>
<div class="bbCodeBlock bbCodeVfcHH HiddenContent">
<div class="attribution type">Hidden Content:</div>
<blockquote>You must reply before you can see the hidden data contained here.</blockquote>
</div>
<div class="ToggleTriggerAnchor bbCodeSpoilerContainer">
<button type="button" class="button bbCodeSpoilerButton ToggleTrigger Tooltip JsOnly" data-target="> .SpoilerTarget"><span>Spoiler: <span class="SpoilerTitle">Mediainfo</span></span></button>
<div class="SpoilerTarget bbCodeSpoilerText">
<div class="bbCodeBlock bbCodeCode">
<div class="type">Code:</div>
<pre>General
Complete name                            : /Volumes/Music video/MV/OLASZ/Keila Guilarte/KEYLA FEAT ORLAND MAX - Fight For This Love_scale_2x_amq-13.mp4
Format                                   : MPEG-4
Format profile                           : Base Media
Codec ID                                 : isom (isom/iso2/avc1/mp41)
File size                                : 657 MiB
Duration                                 : 3 min 44 s
Overall bit rate                         : 24.5 Mb/s
Frame rate                               : 25.000 FPS
Writing application                      : Lavf58.76.100

Video
ID                                       : 1
Format                                   : AVC
Format/Info                              : Advanced Video Codec
Format profile                           : Constrained Baseline@L5
Format settings                          : 1 Ref Frames
Format settings, CABAC                   : No
Format settings, Reference frames        : 1 frame
Format settings, GOP                     : M=1, N=12
Codec ID                                 : avc1
Codec ID/Info                            : Advanced Video Coding
Duration                                 : 3 min 44 s
Bit rate                                 : 24.4 Mb/s
Width                                    : 2 560 pixels
Height                                   : 1 440 pixels
Display aspect ratio                     : 16:9
Frame rate mode                          : Constant
Frame rate                               : 25.000 FPS
Color space                              : YUV
Chroma subsampling                       : 4:2:0
Bit depth                                : 8 bits
Scan type                                : Progressive
Bits/(Pixel*Frame)                       : 0.265
Stream size                              : 653 MiB (99%)
Writing library                          : x264 core 157
Encoding settings                        : cabac=0 / ref=1 / deblock=0:0:0 / analyse=0:0 / me=dia / subme=0 / psy=1 / psy_rd=1.00:0.00 / mixed_ref=0 / me_range=16 / chroma_me=1 / trellis=0 / 8x8dct=0 / cqm=0 / deadzone=21,11 / fast_pskip=1 / chroma_qp_offset=0 / threads=4 / lookahead_threads=1 / sliced_threads=0 / nr=0 / decimate=1 / interlaced=0 / bluray_compat=0 / constrained_intra=0 / bframes=0 / weightp=0 / keyint=12 / keyint_min=1 / scenecut=0 / intra_refresh=0 / rc=crf / mbtree=0 / crf=17.0 / qcomp=0.60 / qpmin=0 / qpmax=69 / qpstep=4 / ip_ratio=1.40 / aq=0
Codec configuration box                  : avcC

Audio
ID                                       : 2
Format                                   : AAC LC
Format/Info                              : Advanced Audio Codec Low Complexity
Codec ID                                 : mp4a-40-2
Duration                                 : 3 min 44 s
Bit rate mode                            : Constant
Bit rate                                 : 126 kb/s
Channel(s)                               : 2 channels
Channel layout                           : L R
Sampling rate                            : 44.1 kHz
Frame rate                               : 43.066 FPS (1024 SPF)
Compression mode                         : Lossy
Stream size                              : 3.36 MiB (1%)
Title                                    : ISO Media file produced by Google Inc.
Default                                  : Yes
Alternate group                          : 1
</pre>
</div></div>
</div>
<div class="messageTextEndMarker">&nbsp;</div>
</blockquote>
</article>]]></description>
                <author><![CDATA[zuluka]]></author>
                </item>

                </channel></rss>